<!DOCTYPE svg PUBLIC "-//W3C//DTD SVG 1.1//EN" "http://www.w3.org/Graphics/SVG/1.1/DTD/svg11.dtd">
<!-- Uploaded to: SVG Repo, www.svgrepo.com, Transformed by: SVG Repo Mixer Tools -->
<svg fill="#ffffff" height="800px" width="800px" version="1.1" id="Layer_1" xmlns="http://www.w3.org/2000/svg" xmlns:xlink="http://www.w3.org/1999/xlink" viewBox="0 0 297 297" xml:space="preserve" stroke="#ffffff">
<g id="SVGRepo_bgCarrier" stroke-width="0"/>
<g id="SVGRepo_tracerCarrier" stroke-linecap="round" stroke-linejoin="round"/>
<g id="SVGRepo_iconCarrier"> <g> <g> <path d="M221.227,32.615H191V9.884C191,4.426,186.575,0,181.116,0h-65.231c-5.458,0-9.884,4.425-9.884,9.884v22.732H75.773 c-19.301,0-35.004,15.703-35.004,35.004v23.803c0,5.458,4.425,9.884,9.884,9.884h6.967l11.124,186.399 c0.311,5.22,4.636,9.294,9.866,9.294h139.78c5.229,0,9.554-4.074,9.866-9.295l11.124-186.399h6.967 c5.458,0,9.884-4.425,9.884-9.884V67.619C256.231,48.318,240.528,32.615,221.227,32.615z M125.768,19.767h45.464v12.849h-45.464 V19.767z M89.693,277.233h-1.772L77.452,101.8h12.241V277.233z M121.144,277.233H109.46V101.306h11.684V277.233z M156.09,277.233 h-15.179V101.8h15.179V277.233z M187.54,277.233h-11.684V101.306h11.684V277.233z M209.079,277.233h-1.772V101.8h12.241 L209.079,277.233z M236.463,81.539H60.537v-13.92c0-8.401,6.835-15.236,15.236-15.236h145.453c8.402,0,15.237,6.835,15.237,15.236 V81.539z"/> </g> </g> </g>
</svg>